PathFileType  4	(X/Y/Z) C:\Users\antoi\Documents\MyRepositories\mobilecap\ResultsAnalysis
DataRate	CameraRate	NumFrames	NumMarkers	Units	OrigDataRate	OrigDataStartFrame	OrigNumFrames
100.0	100.0	4	51	mm	100.0	884	1414
Frame#	Time	r_knee			r_shank_antsup			r_ankle			r_calc			r_5meta			r_toe			L_knee			L_shank_antsup			L_ankle			L_calc			L_5meta			L_toe			r_sh2			r_sh3			r_sh4			L_sh2			L_sh3			r_thigh1			r_thigh2			r_thigh3			r_thigh4			r_thigh5			L_thigh1			L_thigh2			L_thigh3			L_thigh4			r.ASIS			r.PSIS			L.ASIS			L.PSIS			C7			R_Shoulder			L_Shoulder			R_Sternum			L_Sternum			R_humerus			R_elbow_med			R_elbow_lat			R_forearm			R_wrist_radius			R_wrist_ulna			L_humerus			L_elbow_med			L_elbow_lat			L_forearm			L_wrist_radius			L_wrist_ulna			R_HJC			L_HJC			R_HJC_reg			L_HJC_reg			
		X1	Y1	Z1	X2	Y2	Z2	X3	Y3	Z3	X4	Y4	Z4	X5	Y5	Z5	X6	Y6	Z6	X7	Y7	Z7	X8	Y8	Z8	X9	Y9	Z9	X10	Y10	Z10	X11	Y11	Z11	X12	Y12	Z12	X13	Y13	Z13	X14	Y14	Z14	X15	Y15	Z15	X16	Y16	Z16	X17	Y17	Z17	X18	Y18	Z18	X19	Y19	Z19	X20	Y20	Z20	X21	Y21	Z21	X22	Y22	Z22	X23	Y23	Z23	X24	Y24	Z24	X25	Y25	Z25	X26	Y26	Z26	X27	Y27	Z27	X28	Y28	Z28	X29	Y29	Z29	X30	Y30	Z30	X31	Y31	Z31	X32	Y32	Z32	X33	Y33	Z33	X34	Y34	Z34	X35	Y35	Z35	X36	Y36	Z36	X37	Y37	Z37	X38	Y38	Z38	X39	Y39	Z39	X40	Y40	Z40	X41	Y41	Z41	X42	Y42	Z42	X43	Y43	Z43	X44	Y44	Z44	X45	Y45	Z45	X46	Y46	Z46	X47	Y47	Z47	X48	Y48	Z48	X49	Y49	Z49	X50	Y50	Z50	X51	Y51	Z51	

884	8.83000000	-162.10345	519.68814	-384.30783	-136.39657	392.46227	-398.21172	-297.04577	95.44971	-445.39424	-353.69249	64.72723	-509.37015	-183.32419	36.30259	-370.75739	-130.35615	60.98366	-432.91730	-202.59785	531.34883	-908.89086	-153.16494	424.31223	-914.51689	-288.96562	97.76600	-906.63065	-347.13961	68.41860	-850.45114	-154.69540	34.72668	-955.84539	-116.07005	59.03253	-890.67998	-159.09410	282.73726	-432.52811	-204.77826	392.98527	-361.86028	-221.86938	277.75016	-376.33851	-239.57794	441.73281	-934.77496	-244.46859	320.15619	-954.39137	-201.94185	771.77851	-407.63868	-141.18579	675.76024	-412.51328	-156.48268	637.38892	-358.11851	-277.74516	718.37337	-341.22599	-209.53608	621.93352	-348.72365	-359.78994	719.08996	-874.29999	-277.54085	612.31348	-905.50452	-268.74784	783.24594	-856.03254	-188.14863	676.95226	-888.19233	-293.01208	916.21828	-458.50947	-466.09430	1021.42869	-547.40969	-294.88861	903.94828	-721.25126	-465.94355	1019.55428	-645.76036	-192.69353	1439.51181	-561.67423	-129.50781	1347.74458	-382.54927	-107.46824	1374.89375	-723.45811	-84.32209	1317.78458	-537.03189	-87.83347	1315.07692	-581.88684	-77.31873	1215.94067	-308.40383	-50.32565	978.30653	-328.69076	-22.71447	1027.74422	-251.20589	91.20426	1111.14550	-344.59074	178.42441	1151.66366	-408.84930	207.96048	1121.48228	-402.96224	-64.63012	1231.08746	-804.41970	-88.86762	998.94477	-794.46439	-36.52131	1038.00407	-851.32819	49.20669	1116.94360	-734.62418	140.61739	1153.00574	-674.47518	168.30572	1117.39608	-689.45345	-398.99335	872.59698	-491.48339	-400.87517	852.05039	-703.87543	-391.46145	866.43065	-495.07904	-391.19519	863.12255	-668.65017	
885	8.84000000	-159.91828	518.50440	-383.57918	-134.39475	391.32979	-397.64230	-296.75999	95.48908	-445.45106	-353.48755	64.68745	-509.61134	-183.32696	36.36940	-370.70939	-130.28063	60.96662	-432.89923	-200.33649	530.57154	-910.52007	-150.98366	423.37984	-915.67616	-288.79928	97.76983	-906.77247	-347.11782	68.48645	-850.40710	-154.67994	34.78743	-955.80671	-116.06599	59.04622	-890.58848	-157.77930	281.70446	-432.22606	-202.87165	392.12634	-361.32358	-220.79988	277.30218	-375.74724	-237.21821	441.31487	-936.40654	-242.77054	319.57180	-955.44814	-203.32959	770.03565	-407.47745	-141.05081	675.07023	-411.82270	-155.80802	636.59294	-357.46309	-278.40503	715.63813	-340.94179	-208.61904	620.31121	-347.99541	-359.97906	716.23380	-875.28358	-276.18084	610.92566	-907.36510	-269.84097	781.43489	-856.10810	-187.75062	676.68239	-888.96179	-295.32654	910.66188	-458.34193	-467.70509	1016.58119	-547.27957	-297.13796	898.30777	-721.24958	-467.47489	1014.63036	-645.42974	-189.98121	1431.91790	-562.02026	-126.86432	1340.02865	-383.10141	-105.05395	1366.51803	-723.63801	-82.36997	1309.54209	-537.41109	-85.95356	1306.64971	-582.06248	-74.55996	1208.75547	-308.67417	-47.26008	971.60649	-328.57125	-19.42627	1020.80109	-251.09472	94.34862	1104.39794	-344.65901	181.46744	1145.02500	-408.95086	211.03199	1114.87794	-403.13568	-61.74257	1223.21304	-804.26262	-85.01988	991.04413	-794.25595	-32.80860	1030.26653	-851.01091	52.38160	1109.70115	-734.19494	143.60054	1146.20390	-674.03455	171.52512	1110.83996	-689.33081	-401.35808	867.44820	-491.32379	-403.35066	846.90854	-703.71553	-394.02463	861.31593	-494.99203	-393.61620	857.86345	-668.67158	
886	8.85000000	-157.73773	517.38994	-382.76447	-132.47498	390.26641	-397.13200	-296.51738	95.54799	-445.56167	-353.31405	64.71942	-509.81541	-183.30664	36.42320	-370.69830	-130.25359	60.99688	-432.90389	-198.20014	529.80278	-912.15785	-148.86691	422.43145	-916.84020	-288.59950	97.81780	-907.11912	-347.11833	68.53766	-850.35048	-154.65249	34.84817	-955.73757	-116.06796	59.08926	-890.49501	-156.47841	280.82548	-431.94102	-200.96927	391.38874	-361.00125	-219.72262	276.82675	-375.48697	-235.00696	440.82947	-938.03977	-241.24152	319.04128	-956.62801	-204.66528	768.33219	-407.24539	-140.95426	674.49876	-410.82275	-155.23539	635.83391	-356.80518	-278.93997	712.88706	-340.64057	-207.60421	618.16408	-348.14051	-360.09127	713.73110	-876.54647	-274.79015	609.75740	-909.40609	-270.95110	779.61695	-855.92999	-187.28617	676.43652	-889.58194	-297.55763	905.11058	-458.15102	-469.23730	1011.76158	-547.35625	-299.30196	892.61812	-721.21022	-469.00551	1009.64652	-645.15891	-187.28171	1424.29013	-562.36234	-124.27169	1332.33233	-383.49548	-102.58487	1358.16186	-723.92235	-80.42003	1301.12023	-537.77490	-84.07689	1298.23230	-582.25075	-71.81207	1201.64627	-308.92408	-44.35294	964.92816	-327.95828	-16.15700	1013.91949	-250.99776	97.42327	1097.66777	-344.69673	184.47971	1138.31846	-409.11020	214.13277	1108.30360	-403.28830	-58.87840	1215.38347	-804.18180	-81.18119	983.19661	-794.13986	-29.16292	1022.59016	-850.81433	55.52492	1102.50945	-733.83883	146.59244	1139.39625	-673.69912	174.68798	1104.24702	-689.20879	-403.67578	862.33161	-491.17411	-405.73205	841.69409	-703.55575	-396.46286	856.34178	-494.76200	-396.05116	852.58398	-668.53922	
887	8.86000000	-155.70798	516.30212	-382.00682	-130.68521	389.18004	-396.78578	-296.35602	95.57513	-445.72997	-353.21305	64.77578	-509.93647	-183.28443	36.40614	-370.76247	-130.24961	61.02774	-432.89470	-196.22228	528.98889	-913.60726	-146.87723	421.49254	-918.10374	-288.44333	97.88511	-907.50690	-347.15986	68.59280	-850.30577	-154.61723	34.89854	-955.65191	-116.06836	59.14050	-890.41662	-155.26496	280.07655	-431.70059	-199.10290	390.69631	-360.83694	-218.55893	276.26156	-375.58818	-233.04682	440.05420	-939.45639	-239.79398	318.51530	-957.74517	-206.07117	766.60710	-407.14217	-140.92678	673.84039	-410.18623	-154.75449	635.10516	-356.23149	-279.37251	710.10994	-340.36620	-206.59763	616.17658	-348.06206	-360.22272	711.38362	-877.98042	-273.43502	608.81330	-911.53041	-272.14344	777.84314	-855.73947	-186.88546	676.14590	-889.97091	-299.75111	899.47722	-458.02262	-470.65309	1006.87828	-547.58209	-301.35819	886.93739	-721.10472	-470.56976	1004.62137	-644.94198	-184.59387	1416.62028	-562.67466	-121.73184	1324.69273	-383.75314	-100.14280	1349.84724	-724.20394	-78.45519	1292.64398	-538.07896	-82.19998	1289.81280	-582.43292	-69.06626	1194.56871	-309.13124	-41.55607	958.11069	-327.38576	-12.88515	1007.04309	-251.08004	100.43269	1090.96448	-344.84906	187.46766	1131.65642	-409.30755	217.22859	1101.79841	-403.39419	-56.18417	1207.57568	-804.13052	-77.42043	975.32333	-793.94159	-25.55109	1014.88534	-850.54921	58.67392	1095.33850	-733.49808	149.62164	1132.61346	-673.49903	177.84412	1097.60993	-688.94176	-405.95560	857.15648	-491.09275	-408.00493	836.44854	-703.46759	-398.69138	851.40986	-494.43556	-398.54332	847.38210	-668.22322	
